# xmcd
#
# Track frame offsets:
#	150
#	17977
#	40507
#	63800
#	88220
#	108367
#	132100
#	151617
#	170695
#	192900
#
# Disc length: 2851 seconds
#
# Revision: 2
# Processed by: cddbd v1.5.2PL0 Copyright (c) Steve Scherf et al.
# Submitted via: EZCDAudioConverter 8.0.2.1
#
DISCID=760b210a
DTITLE=Phi Nhung - Tình Ca Quê Hương
DYEAR=1997
DGENRE=country
TTITLE0=Tiếng hò miền Nam
TTITLE1=Duyên quê
TTITLE2=Nhật ký hai đứa mình
TTITLE3=Tình lúa duyên trăng
TTITLE4=Tình ca quê hương
TTITLE5=Nén hương yêu
TTITLE6=Bao giờ quên em
TTITLE7=Sầu Cố Đô
TTITLE8=Hận Tha La
TTITLE9=Gợi nhớ quê hương
EXTD=
EXTT0=
EXTT1=
EXTT2=
EXTT3=
EXTT4=
EXTT5=
EXTT6=
EXTT7=
EXTT8=
EXTT9=
PLAYORDER=
